<svg xmlns="http://www.w3.org/2000/svg" width="142.2" height="142.2" viewBox="0 0 142.242 142.238">
  <path fill="#205DA8" d="M71 0C32 0 0 31.8 0 71c0 39.4 31.8 71.2 71 71.2 39.4 0 71.2-31.8 71.2-71 0-39.4-31.8-71.2-71-71.2zm2.6 131.8l11-11c2-2 2-5.4 0-7.4s-5.3-2-7.3 0L60.6 130c-.3.3-.4.6-.5 1-6-1.2-11.8-3.2-17.2-6L57 110.6c2-2 2-5.3 0-7.3s-5.4-2-7.4 0L34 119c-4.4-3.2-8.2-7.2-11.5-11.6 0 0 .3 0 .4-.2l16.6-16.7c2-2 2-5.4 0-7.4s-5.4-2-7.4 0L17 98.6C14 93 12 87 11 81c.2-.2.6-.3.7-.5l16.6-16.7c2-2 2-5.4 0-7.4s-5.3-2-7.3 0L10.6 67C12.6 35.6 39 10.6 71 10.6c33.6 0 60.8 27.3 60.8 60.7 0 32.6-26 59.2-58.2 60.6zm0 0"/>
</svg>
