<?xml version="1.0" encoding="utf-8"?>
<!-- Generator: Adobe Illustrator 16.0.0, SVG Export Plug-In . SVG Version: 6.00 Build 0)  -->
<!DOCTYPE svg PUBLIC "-//W3C//DTD SVG 1.1//EN" "http://www.w3.org/Graphics/SVG/1.1/DTD/svg11.dtd">
<svg version="1.1" id="Layer_1" xmlns="http://www.w3.org/2000/svg" xmlns:xlink="http://www.w3.org/1999/xlink" x="0px" y="0px"
	 width="453.602px" height="453.602px" viewBox="0 0 453.602 453.602" enable-background="new 0 0 453.602 453.602"
	 xml:space="preserve">
<g>
	<path fill="#205DA8" d="M226.801,0C101.762,0,0,101.762,0,226.801c0,125.039,101.762,226.8,226.801,226.8
		c125.039,0,226.801-101.762,226.801-226.8C453.52,101.762,351.84,0,226.801,0L226.801,0z M368.879,353.359
		c-4.801,5.359-9.918,10.48-15.277,15.281c-11.363,7.68-25.922,11.758-42.801,11.758c-3.281,0-6.563-0.16-9.922-0.477
		c19.84-29.922,33.84-71.684,38.48-118.961c7.039-9.359,13.52-18.801,19.281-28.402c6.719,13.121,12.16,26.32,15.84,39.281
		C384.078,305.441,382,333.84,368.879,353.359L368.879,353.359z M73.199,300.641c27.442,18.32,64.879,31.68,107.52,37.359
		c8.32,6.398,16.883,12.32,25.441,17.68c-46.879,20.16-90.238,20.48-114.558-3.758C79.281,339.602,73.121,321.922,73.199,300.641
		L73.199,300.641z M330.641,226.801c0,10.32-0.48,20.398-1.281,30.238c-8.801,11.441-18.48,22.563-29.121,33.199
		C274,316.48,245.441,336.801,217.602,350.48c-5.442-3.199-10.883-6.641-16.321-10.32c8.321,0.641,16.879,0.961,25.52,0.961
		c2.879,0,5.199-2.32,5.199-5.199c0-2.883-2.32-5.203-5.199-5.203c-14.403,0-28.403-0.879-41.84-2.559
		c-10.801-8.48-21.441-17.762-31.602-27.84c-24.398-24.398-44.16-51.359-58.078-78.398c5.52-10.723,11.918-21.442,19.199-31.922
		c-1.281,12-1.921,24.32-1.921,36.961c0,2.879,2.32,5.199,5.203,5.199c2.879,0,5.199-2.32,5.199-5.199
		c0-18.801,1.519-36.961,4.238-54.16c8-10.082,16.723-19.84,26.16-29.281c2-2,2-5.36,0-7.36s-5.359-2-7.359,0
		c-5.121,5.121-10,10.32-14.641,15.602c1.282-5.442,2.719-10.801,4.243-16c27.117-8.082,58.238-12.641,91.199-12.641
		c14.398,0,28.398,0.879,41.84,2.559c10.879,8.48,21.438,17.761,31.598,27.922c10.16,10.16,19.441,20.718,27.84,31.597
		C329.762,198.398,330.641,212.398,330.641,226.801L330.641,226.801z M327.039,276.238c-6,41.203-19.359,76.961-37.277,102.242
		c-19.602-3.281-40.563-10.879-61.523-22.082c26.961-14,54.242-33.84,79.281-58.879C314.48,290.641,320.879,283.52,327.039,276.238
		L327.039,276.238z M89.68,210.32c-4.321-9.601-7.918-19.121-10.559-28.558c-1.762-6.242-3.043-12.16-4-18
		c13.52-9.602,30-17.84,48.719-24.321c-2.559,9.278-4.641,18.957-6.399,28.879C106.641,182.078,97.359,196.16,89.68,210.32
		L89.68,210.32z M139.359,123.84c6.563-18.719,14.801-35.281,24.403-48.801c28,4.641,58.797,18.082,88.558,38.402
		c-8.32-0.64-16.879-0.961-25.52-0.961C195.441,112.48,165.84,116.559,139.359,123.84L139.359,123.84z M307.602,146
		c-6.082-6.078-12.32-11.922-18.723-17.441c10.16,1.921,19.922,4.242,29.199,6.961c2.801,9.359,5.121,19.121,6.961,29.281
		C319.441,158.398,313.68,152.078,307.602,146L307.602,146z M272.801,115.52c-33.441-25.598-69.199-43.122-101.84-49.758
		c13.117-15.442,28.238-25.684,44.48-28.961c3.758-0.242,7.52-0.403,11.278-0.403c3.762,0,7.602,0.161,11.281,0.403
		c31.922,6.397,59.602,39.597,76.16,87.039C301.121,120.238,287.281,117.441,272.801,115.52L272.801,115.52z M159.602,63.922
		c-5.762-0.723-11.364-1.203-16.801-1.203c-4.961,0-9.602,0.402-14.242,0.961c16.16-9.758,33.921-17.121,52.722-21.758
		C173.602,47.922,166.32,55.281,159.602,63.922L159.602,63.922z M99.922,84.879c11.359-7.68,25.918-11.758,42.797-11.758
		c3.203,0,6.562,0.16,9.922,0.481c-10.082,15.199-18.641,33.359-25.2,53.839c-20.402,6.559-38.64,15.118-53.839,25.2
		c-1.762-20.961,1.918-38.879,11.117-52.481C89.52,94.801,94.559,89.68,99.922,84.879L99.922,84.879z M64,159.52
		c-8.641,6.718-16.078,14-22,21.761c4.641-18.801,12-36.479,21.762-52.64C62.398,138.16,62.559,148.559,64,159.52L64,159.52z
		 M36.48,226.801c0-3.762,0.161-7.521,0.321-11.281c3.277-16.321,13.437-31.442,28.961-44.641c0.879,4.48,1.918,9.043,3.277,13.68
		c3.52,12.32,8.563,24.8,14.641,37.281c-10,20.559-16.481,40.801-19.2,59.68C49.68,268.641,40,253.84,36.801,238
		C36.559,234.32,36.48,230.559,36.48,226.801L36.48,226.801z M79.121,261.84c2.719-9.359,6.238-18.879,10.559-28.398
		c14.16,25.758,33.281,51.039,56.32,74.16c6.078,6.078,12.32,11.918,18.719,17.359c-36.559-6.883-68.16-19.52-90.957-36.082
		C74.641,280.32,76.398,271.281,79.121,261.84L79.121,261.84z M142.48,380.559c22.641,0,48.239-6.398,74.399-18.48
		c22.242,12.563,44.641,21.441,65.762,25.684c-13.121,15.52-28.32,25.68-44.563,28.957c-3.758,0.242-7.52,0.402-11.277,0.402
		c-46.082,0-88.321-16.402-121.281-43.68C116.398,378.16,128.879,380.559,142.48,380.559L142.48,380.559z M294,389.602
		c5.762,0.719,11.359,1.199,16.801,1.199c4.879,0,9.598-0.402,14.16-0.961c-16.16,9.762-33.922,17.121-52.723,21.762
		C280,405.68,287.281,398.238,294,389.602L294,389.602z M340.719,241.281c0.16-4.801,0.32-9.602,0.32-14.48
		c0-8.641-0.32-17.039-0.961-25.36c4.641,6.719,8.883,13.52,12.723,20.399C349.121,228.32,345.121,234.801,340.719,241.281
		L340.719,241.281z M338,180.801c-1.922-14.481-4.719-28.321-8.32-41.442c17.922,6.243,33.762,14.082,46.961,23.121
		c-0.719,3.04-1.359,6.079-2.242,9.2c-3.68,12.961-9.117,26.16-15.84,39.281C352.48,200.801,345.602,190.719,338,180.801
		L338,180.801z M326.16,127.441C314,89.68,295.039,59.52,272.32,42c42.641,10.48,79.602,35.281,105.52,69.039
		c2.961,11.922,3.281,25.68,0.879,40.801C363.762,142.078,346,133.84,326.16,127.441L326.16,127.441z M390.801,130.32
		c9.277,15.68,16.32,32.801,20.801,50.961c-6.242-8.082-14.082-15.761-23.281-22.801C390.16,148.559,390.961,139.121,390.801,130.32
		L390.801,130.32z M42,272.238c5.762,7.523,12.961,14.641,21.281,21.203c-0.801,13.438,0.481,25.918,4,37.039
		C55.762,312.879,47.121,293.281,42,272.238L42,272.238z M389.84,324.879c2.16-16.559,0.48-35.359-5.359-55.918
		c-4.48-15.602-11.039-31.441-19.602-47.199C373.359,206,380,190.16,384.48,174.559c0.559-1.84,0.801-3.52,1.281-5.36
		c16.637,13.521,27.598,29.281,30.957,46.321c0.242,3.761,0.32,7.519,0.32,11.281C417.121,262.641,407.121,296.238,389.84,324.879
		L389.84,324.879z M389.84,324.879"/>
	<path fill="#205DA8" d="M226.801,155.602c-39.281,0-71.121,31.839-71.121,71.117c0,39.281,31.84,71.121,71.121,71.121
		c39.277,0,71.121-31.84,71.121-71.121C297.922,187.441,266.078,155.602,226.801,155.602L226.801,155.602z M229.281,287.359
		l11.039-11.039c2-2,2-5.359,0-7.359s-5.359-2-7.359,0l-16.723,16.719c-0.238,0.242-0.316,0.559-0.476,0.801
		c-6.082-1.121-11.922-3.121-17.282-6l14.161-14.16c2-2,2-5.359,0-7.359s-5.36-2-7.36,0l-15.679,15.758
		c-4.321-3.359-8.161-7.277-11.442-11.68c0.16-0.078,0.32-0.16,0.399-0.238l16.722-16.723c2-2,2-5.359,0-7.359c-2-2-5.359-2-7.359,0
		l-15.363,15.359c-2.719-5.438-4.637-11.359-5.68-17.52c0.242-0.16,0.562-0.238,0.723-0.48l16.718-16.719c2-2,2-5.359,0-7.359
		s-5.359-2-7.359,0l-10.723,10.719c2.16-31.598,28.403-56.641,60.563-56.641c33.52,0,60.719,27.281,60.719,60.723
		C287.52,259.441,261.602,286,229.281,287.359L229.281,287.359z M229.281,287.359"/>
</g>
</svg>
