<svg xmlns="http://www.w3.org/2000/svg" width="400.1" height="400.2" viewBox="0 0 400.082 400.16">
  <path fill="#205DA8" d="M400 200C400 89.7 310.6 0 200 0S0 89.6 0 200c0 110.6 89.6 200.2 200 200.2 110.6 0 200-89.6 200-200zm-36-96.4c9.4 15.7 16.4 32.8 21 51-6.4-8-14.2-15.8-23.4-22.8 1.8-10 2.6-19.4 2.5-28.2zm-5 39c16.7 13.4 27.6 29.2 31 46.2.2 3.8.3 7.5.3 11.3 0 36-10 69.6-27.2 98.2 2.3-16.5.6-35.3-5.2-56-4.5-15.5-11-31.3-19.6-47 8.4-15.8 15-31.7 19.6-47.3l1.2-5.5zm-45.6 32c4.6 6.8 8.8 13.6 12.7 20.4-3.6 6.6-7.7 13-12 19.5l.2-14.5c0-8.6-.2-17-.8-25.4zm-2-20.5c-2-14.4-4.8-28.2-8.4-41.4 18 6.3 33.7 14 47 23.2l-2.3 9.2c-3.7 13-9 26-16 39.2-6-10-12.8-20.2-20.4-30zm-38 109.4c-26 26.3-54.7 46.6-82.5 60.3-5.6-3.2-11-6.7-16.4-10.3 8.3.6 16.8 1 25.5 1 3 0 5.3-2.4 5.3-5.3s-2.3-5-5.2-5c-14.3 0-28.3-1-41.8-2.6-10.8-8.5-21.4-17.8-31.6-28-24.4-24.3-44-51.2-58-78.3 5.5-10.6 12-21.3 19.2-31.8-1.3 12-2 24.3-2 37 0 2.8 2.4 5.2 5.2 5.2 3 0 5.2-2.4 5.2-5.2 0-18.8 1.6-37 4.3-54.2 8-10 16.7-19.8 26-29.3 2-2 2-5.3 0-7.3s-5.2-2-7.2 0c-5 5-10 10.3-14.7 15.6 1.3-5.5 2.8-10.8 4.3-16 27-8 58-12.7 91-12.7 14.5 0 28.5 1 42 2.6 10.8 8.4 21.4 17.6 31.5 27.8 10.2 10.2 19.5 20.7 28 31.6 1.5 13.5 2.4 27.4 2.4 41.8 0 10.4-.6 20.4-1.4 30.3-8.8 11.2-18.4 22.3-29 33zm27-14c-6 41.3-19.4 77-37.4 102.4-19.6-3.3-40.5-11-61.5-22 27-14 54.3-34 79.3-59 7-7 13.4-14 19.5-21.3zm-181 31.5c6 6 12.2 11.8 18.6 17.2-36.6-6.8-68.2-19.5-91-36 1-8.6 2.7-17.6 5.4-27.2 2.7-9.3 6.2-18.8 10.6-28.4 14 25.8 33.2 51.2 56.3 74.3zm-67-126c-1.8-6.2-3-12-4-18 13.5-9.6 30-17.8 48.7-24.3-2.4 9.3-4.5 19-6.3 29-10.8 13.7-20 27.8-27.7 42-4.4-9.7-8-19.3-10.6-28.7zm60.2-58c6.6-18.6 14.8-35.2 24.4-48.7 28 4.7 58.8 18 88.6 38.4-8.3-.6-17-1-25.5-1-31.3 0-61 4-87.4 11.4zM262 102c10.2 2 20 4.3 29.3 7 2.8 9.4 5 19 7 29.3-5.6-6.3-11.3-12.6-17.5-18.8-6-6-12.3-11.8-18.7-17.4zm89-17.5c3 12 3.4 25.7 1 40.8-15-9.6-32.7-18-52.6-24.3-12-37.7-31-68-53.8-85.4 42.6 10.4 79.6 35.3 105.5 69zM200 9.8c3.8 0 7.7 0 11.4.4 32 6.4 59.6 39.6 76 87-13-3.6-26.8-6.4-41.3-8.3-33.4-25.7-69-43.2-101.8-50 13.2-15.4 28.3-25.6 44.5-29 3.8-.2 7.5-.2 11.4-.2zm-45.4 5.5c-7.7 6-15 13.3-21.7 22-6-.8-11.5-1.3-17-1.3-5 0-9.5.4-14.2 1 16.2-9.7 34-17.2 52.8-21.7zM58 73.3c4.8-5.2 9.8-10.3 15.2-15 11.4-7.8 26-12 42.8-12 3.2 0 6.6.3 10 .6-10.2 15-18.7 33.2-25.3 53.7-20.4 6.6-38.6 15-53.8 25.2-2-21 2-39 11-52.6zM37 102c-1.3 9.4-1.2 19.8.3 30.8-8.7 6.7-16 14-22 21.8 4.5-18.8 12-36.5 21.7-52.7zM9.8 200c0-3.7 0-7.4.3-11.2 3.4-16.3 13.5-31.4 29-44.6 1 4.4 2 9 3.3 13.6C45.8 170.2 51 182.6 57 195c-10 20.7-16.5 41-19.2 59.8C23 241.8 13.3 227 10 211.3c-.2-3.7-.2-7.5-.2-11.2zm5.5 45.5c5.7 7.5 13 14.7 21.3 21.2-.8 13.5.4 26 4 37-11.6-17.5-20.2-37-25.3-58.2zM46.5 274c27.4 18.2 65 31.6 107.5 37.3 8.3 6.4 17 12.3 25.4 17.7-46.8 20-90.2 20.4-114.5-3.8-12.4-12.3-18.6-30-18.5-51.3zM200 390.3c-46 0-88.2-16.4-121.2-43.7 11 4.7 23.4 7 37 7 22.6 0 48.2-6.3 74.4-18.3 22.2 12.5 44.6 21.4 65.7 25.6-13.2 15.6-28.4 25.7-44.6 29-3.8.2-7.6.4-11.3.4zm45.5-5.5c7.7-6 15-13.4 21.7-22 5.8.7 11.4 1.2 16.8 1.2 5 0 9.6-.4 14.2-1-16 9.6-33.8 17-52.7 21.7zm81.4-43c-11.5 7.6-26 11.7-43 11.7-3.2 0-6.5-.2-9.8-.5 19.8-30 33.8-71.7 38.4-119 7-9.3 13.6-18.8 19.3-28.4 6.6 13.2 12 26.4 15.8 39.3 9.6 33.7 7.5 62-5.6 81.6-4.8 5.4-10 10.5-15.3 15.3zm0 0"/>
</svg>
